<?xml version="1.0" standalone="no"?>
<!DOCTYPE svg PUBLIC "-//W3C//DTD SVG 20010904//EN"
 "http://www.w3.org/TR/2001/REC-SVG-20010904/DTD/svg10.dtd">
<svg version="1.0" xmlns="http://www.w3.org/2000/svg"
 width="1024.000000pt" height="1024.000000pt" viewBox="0 0 1024.000000 1024.000000"
 preserveAspectRatio="xMidYMid meet">

<g transform="translate(0.000000,1024.000000) scale(0.100000,-0.100000)"
fill="#000000" stroke="none">
<path d="M0 5120 l0 -5120 5120 0 5120 0 0 5120 0 5120 -5120 0 -5120 0 0
-5120z m3596 2445 c46 -155 157 -379 260 -526 206 -293 469 -487 807 -594 64
-21 117 -42 117 -46 0 -14 -92 -10 -172 6 -122 26 -307 93 -417 151 -258 136
-436 296 -585 523 -49 73 -100 159 -114 189 -24 53 -25 61 -19 182 6 127 28
263 49 310 11 24 12 23 25 -25 7 -27 29 -104 49 -170z m3143 148 c20 -87 41
-247 41 -318 0 -76 -13 -113 -77 -219 -203 -338 -452 -552 -804 -690 -212 -83
-449 -128 -449 -86 0 5 15 12 33 15 17 4 83 25 145 46 343 116 635 357 833
689 104 173 181 351 219 501 11 46 23 90 25 97 9 25 23 10 34 -35z m-2750
-420 c47 -124 151 -273 268 -383 197 -187 410 -323 612 -390 94 -32 94 -32
120 -12 19 14 27 30 29 61 5 64 -23 83 -140 95 -47 5 -68 4 -68 -3 0 -6 -5
-11 -11 -11 -12 0 -2 58 13 78 6 6 24 12 39 12 22 0 32 6 39 24 12 34 32 42
125 56 103 14 163 34 253 81 39 22 72 37 72 34 0 -14 -52 -86 -70 -97 -39 -25
-22 -34 52 -30 65 4 71 3 59 -11 -14 -18 -111 -57 -141 -57 -29 0 -32 -15 -15
-65 8 -25 15 -70 15 -100 0 -54 16 -85 45 -85 29 0 164 54 281 112 130 65 267
161 387 273 150 140 233 250 287 383 18 42 36 81 40 86 20 21 67 -218 55 -276
-10 -45 -160 -214 -275 -309 -181 -151 -455 -273 -682 -305 -53 -7 -56 -14
-32 -63 23 -46 30 -150 14 -208 -7 -27 -31 -86 -53 -133 -47 -102 -67 -156
-67 -181 0 -11 17 -30 38 -44 37 -24 40 -25 75 -10 67 28 662 56 786 37 53 -8
43 -21 -34 -45 -146 -47 -254 -61 -455 -59 -107 0 -213 2 -235 4 -39 3 -40 2
-43 -29 -4 -41 -15 -42 -41 -4 -42 59 -73 69 -213 69 -115 0 -131 -2 -159 -21
-18 -12 -37 -31 -43 -42 -19 -35 -31 -36 -36 -2 -4 29 -8 32 -35 30 -16 -2
-111 -6 -210 -9 -160 -6 -193 -4 -294 15 -126 24 -271 67 -271 80 0 5 7 12 16
15 54 21 736 -12 799 -38 32 -14 40 -14 63 -2 15 8 35 23 45 33 16 18 16 23 2
62 -8 24 -30 75 -48 114 -78 166 -92 279 -48 370 13 26 21 51 18 54 -3 3 -46
12 -94 20 -187 31 -421 129 -570 239 -87 64 -268 244 -314 314 -30 43 -31 48
-24 120 5 66 12 108 30 188 8 36 21 26 44 -35z m2891 -165 c0 -37 -82 -255
-116 -309 -30 -48 -84 -93 -223 -187 -215 -145 -402 -225 -656 -283 -143 -33
-405 -53 -405 -31 0 6 17 14 38 17 227 33 357 72 533 160 245 122 408 244 664
497 83 81 153 148 158 148 4 0 7 -6 7 -12z m-3366 -126 c116 -112 175 -165
315 -276 84 -67 284 -191 386 -241 146 -70 237 -100 405 -133 77 -15 140 -30
140 -34 0 -14 -195 -8 -286 7 -207 36 -457 117 -589 190 -57 32 -234 149 -312
206 -57 42 -92 85 -116 139 -12 29 -77 209 -92 258 -11 32 28 2 149 -116z
m-97 -335 c161 -90 468 -224 656 -288 192 -64 472 -119 612 -119 48 0 86 -13
74 -25 -11 -10 -331 -6 -435 6 -170 19 -331 51 -499 101 -90 27 -288 103 -326
125 -37 22 -159 197 -159 228 0 11 20 4 77 -28z m3483 28 c0 -12 -45 -93 -87
-156 -50 -75 -63 -83 -228 -142 -208 -74 -450 -131 -675 -157 -127 -15 -433
-13 -428 3 3 8 40 14 111 19 344 23 706 138 1157 367 136 69 150 76 150 66z
m-3337 -375 c37 -6 134 -24 215 -40 293 -58 667 -100 893 -100 92 0 120 -3
117 -12 -8 -22 -136 -38 -363 -44 -227 -7 -368 1 -672 36 l-152 17 -73 64
c-40 34 -77 66 -82 70 -15 12 4 29 27 24 12 -3 52 -9 90 -15z m3247 12 c0 -11
-138 -135 -165 -150 -12 -6 -108 -21 -215 -34 -168 -20 -238 -23 -505 -22
-306 1 -473 15 -478 39 -1 6 65 12 173 16 272 11 552 43 855 99 356 67 335 64
335 52z m-1990 -237 c0 -8 -1 -15 -2 -15 -12 0 -176 -32 -228 -44 -103 -24
-426 -76 -509 -82 -72 -6 -84 -3 -211 41 -242 85 -261 79 265 87 253 4 492 11
530 16 115 15 155 14 155 -3z m930 -5 c96 -5 318 -10 493 -10 283 0 357 -6
300 -23 -10 -3 -72 -27 -138 -53 -118 -47 -122 -48 -225 -48 -105 1 -243 21
-475 70 -66 14 -155 31 -198 38 -84 14 -93 18 -82 37 6 8 29 10 79 5 39 -3
150 -11 246 -16z m-889 -70 c15 -50 9 -58 -62 -69 -95 -15 -309 -24 -309 -13
0 11 110 58 210 90 135 43 146 42 161 -8z m749 -12 c116 -45 149 -63 128 -70
-21 -7 -317 12 -343 22 -31 12 -33 48 -4 79 19 20 28 22 68 16 25 -4 93 -25
151 -47z m-547 -317 c-3 -73 -142 -235 -246 -287 -58 -30 -196 -74 -229 -74
-27 0 37 56 225 199 54 40 123 102 155 138 66 74 98 82 95 24z m204 -17 c26
-31 84 -82 128 -115 125 -93 274 -213 274 -223 2 -19 -111 9 -212 53 -108 47
-205 142 -261 256 -33 68 -33 85 -2 85 17 0 39 -17 73 -56z m-123 -86 c8 -29
17 -83 20 -119 4 -43 22 -113 51 -195 56 -158 55 -150 26 -146 -25 2 -101 57
-101 73 0 17 -15 9 -60 -31 -42 -37 -90 -53 -90 -30 0 5 6 27 14 47 7 21 19
58 26 83 7 25 19 63 27 85 11 29 13 60 8 115 -5 64 -3 82 15 123 28 62 46 60
64 -5z m156 -144 c50 -42 101 -90 114 -107 32 -44 59 -98 51 -105 -10 -10
-106 28 -162 65 -52 34 -72 64 -92 138 -12 42 -14 85 -6 85 3 0 46 -34 95 -76z
m-270 12 c0 -41 -18 -95 -39 -120 -33 -38 -184 -113 -211 -104 -6 2 4 27 22
58 35 57 203 214 219 204 5 -3 9 -20 9 -38z m355 -747 c65 -16 129 -77 156
-147 20 -49 23 -80 27 -233 l4 -176 -91 -7 c-51 -4 -96 -4 -101 -1 -6 4 -10
70 -10 156 0 146 -1 151 -25 174 -30 31 -47 31 -82 1 l-28 -24 -3 -484 c-4
-550 0 -619 31 -649 24 -22 59 -19 90 8 15 14 17 37 17 185 0 142 2 168 15
169 8 0 44 0 80 0 36 0 74 0 86 0 20 -1 20 -4 17 -198 -4 -222 -12 -253 -83
-332 -92 -101 -285 -104 -376 -4 -89 96 -89 96 -89 747 0 477 2 567 16 619 42
162 179 239 349 196z m-4093 -28 c69 -27 128 -89 157 -165 32 -87 41 -214 41
-606 -1 -542 -13 -625 -106 -729 -70 -78 -123 -94 -309 -95 l-150 -1 -3 800
c-1 440 0 806 3 814 4 11 34 13 158 9 124 -5 163 -9 209 -27z m786 -83 l-3
-113 -135 -5 -135 -5 -3 -207 -2 -207 92 -3 93 -3 0 -155 0 -155 -90 -5 -90
-5 0 -210 0 -210 138 -3 138 -3 -3 -112 -3 -112 -234 -3 c-164 -2 -238 1 -247
9 -12 9 -14 115 -14 613 0 330 3 692 7 804 l6 202 244 0 244 0 -3 -112z m422
92 c88 -29 147 -92 176 -184 22 -70 29 -254 15 -342 -12 -71 -62 -167 -97
-187 -22 -12 -17 -26 22 -70 20 -22 44 -58 54 -81 46 -105 52 -417 10 -529
-60 -161 -164 -216 -411 -217 -98 0 -118 3 -123 16 -9 23 -7 1599 2 1608 11
12 311 0 352 -14z m500 -646 c0 -592 2 -670 16 -700 13 -26 22 -34 43 -34 34
0 48 10 60 43 7 19 11 248 11 693 l0 665 103 -3 102 -3 0 -690 c0 -687 0 -690
-22 -748 -48 -126 -130 -187 -250 -187 -115 1 -191 50 -241 158 l-27 57 -3
694 c-1 382 0 700 2 708 4 10 32 13 106 13 l100 0 0 -666z m654 649 c2 -10 19
-90 36 -178 17 -88 40 -196 50 -240 10 -44 30 -133 45 -197 22 -100 38 -140
47 -126 1 2 5 172 8 378 l5 375 96 3 96 3 6 -383 c9 -480 9 -1211 1 -1232 -5
-13 -24 -16 -99 -16 -56 0 -96 4 -100 11 -9 13 -26 88 -65 273 -46 222 -107
486 -114 493 -3 4 -8 4 -11 1 -3 -3 -5 -172 -5 -376 0 -204 -3 -378 -6 -387
-5 -12 -25 -15 -99 -15 -65 0 -94 4 -98 13 -3 9 -1 1599 2 1615 1 1 46 2 100
2 86 0 100 -2 105 -17z m691 -236 c0 -158 4 -246 10 -244 9 3 45 102 136 375
l41 122 100 0 100 0 -5 -27 c-3 -16 -28 -93 -57 -173 -28 -80 -66 -188 -84
-240 l-33 -95 23 -115 c12 -63 32 -155 44 -205 12 -49 30 -130 40 -180 10 -49
39 -191 64 -314 25 -124 46 -237 46 -253 l0 -28 -104 0 c-91 0 -105 2 -110 18
-8 30 -44 201 -87 417 -23 116 -44 220 -47 233 -7 34 -17 27 -43 -30 -23 -51
-24 -65 -29 -343 l-5 -290 -100 0 -100 0 -3 800 c-1 440 0 806 3 813 3 9 30
12 102 10 l98 -3 0 -248z m1790 138 l0 -110 -135 -5 -135 -5 -3 -207 -2 -208
88 0 c55 0 92 -4 100 -12 18 -18 17 -282 -1 -296 -7 -6 -51 -12 -97 -14 l-85
-3 0 -210 0 -210 137 -3 137 -3 7 -35 c7 -40 1 -165 -10 -183 -8 -12 -440 -17
-470 -5 -14 6 -16 86 -16 808 0 442 3 806 7 810 4 3 113 5 242 4 l236 -3 0
-110z m279 98 c3 -10 37 -162 76 -338 83 -376 89 -399 98 -390 4 4 9 172 12
373 l5 367 596 0 595 0 59 -30 c116 -59 163 -157 172 -359 8 -177 -6 -259 -59
-363 l-42 -81 18 -99 c9 -54 24 -129 31 -168 8 -38 28 -146 46 -240 17 -93 34
-174 39 -178 11 -12 15 13 45 248 14 110 44 333 66 495 22 162 54 403 72 535
l32 240 127 3 c126 3 128 2 132 -20 8 -36 25 -161 41 -308 9 -74 24 -200 34
-280 76 -575 122 -958 119 -984 l-3 -31 -94 -3 c-52 -1 -98 1 -103 6 -5 5 -15
76 -24 158 -20 199 -17 194 -101 194 -38 0 -73 -4 -78 -8 -6 -4 -19 -81 -29
-172 -10 -95 -23 -168 -29 -172 -16 -10 -409 -10 -423 0 -10 6 -39 183 -96
587 -13 87 -14 90 -40 93 l-28 3 -2 -343 -3 -343 -105 0 -105 0 -5 695 -5 695
-102 3 -103 3 0 -678 c0 -373 -3 -688 -6 -701 -6 -22 -10 -23 -108 -20 l-101
3 -3 698 -2 697 -110 0 -110 0 -2 -697 -3 -698 -98 -3 c-116 -3 -104 -20 -147
193 -42 205 -92 428 -121 538 -23 88 -29 26 -31 -345 l-3 -383 -95 0 -95 0 -3
800 c-1 440 0 806 3 813 3 8 33 12 99 12 82 0 95 -2 100 -17z m2604 -685 l2
-697 133 -3 132 -3 0 -110 0 -110 -235 0 -234 0 -7 25 c-9 33 -11 1585 -2
1594 4 4 52 5 107 4 l101 -3 3 -697z m-7884 -1144 c12 -32 -3 -53 -42 -56
l-37 -3 -5 -220 c-4 -121 -7 -221 -8 -223 -1 -2 -17 -2 -34 0 l-33 3 -3 216
-2 217 -35 6 c-26 5 -36 13 -41 31 -3 13 -3 29 1 34 4 7 51 11 120 11 95 0
114 -3 119 -16z m269 5 c63 -28 86 -150 47 -238 -25 -55 -25 -60 5 -156 34
-111 34 -117 -12 -113 -37 3 -38 4 -61 78 -35 109 -40 120 -56 120 -12 0 -16
-19 -18 -97 l-3 -98 -31 -3 c-30 -3 -32 -1 -37 40 -3 24 -4 104 -2 178 2 74 4
172 4 218 l1 82 70 0 c38 0 80 -5 93 -11z m237 -190 c0 -119 4 -208 10 -220
13 -24 65 -26 74 -3 3 9 6 108 6 220 l0 204 35 0 34 0 3 -202 c4 -245 3 -251
-32 -288 -24 -25 -36 -30 -77 -30 -28 0 -58 7 -71 16 -47 33 -52 58 -52 289
l0 215 35 0 35 0 0 -201z m495 166 c0 -27 -3 -30 -36 -33 -28 -2 -38 -8 -43
-25 -3 -12 -6 -113 -6 -225 l0 -203 -32 3 -33 3 -3 217 -2 218 -28 6 c-15 3
-33 7 -39 10 -14 4 -18 46 -6 58 4 3 57 5 117 4 l111 -3 0 -30z m175 -70 c0
-100 1 -106 23 -114 12 -5 31 -5 42 -1 18 7 20 17 22 101 1 52 2 100 2 107 1
7 15 12 36 12 l35 0 0 -260 0 -260 -35 0 -35 0 0 100 c0 90 -2 100 -21 110
-11 6 -30 10 -42 8 -21 -3 -22 -8 -25 -110 l-3 -108 -34 0 c-19 0 -35 3 -36 8
-4 50 -5 322 -1 405 l5 107 34 0 33 0 0 -105z m976 60 c8 -22 23 -75 35 -117
11 -42 27 -85 35 -95 13 -16 15 -3 13 107 -2 163 -5 152 34 148 l32 -3 0 -255
0 -255 -38 -3 c-24 -2 -39 1 -42 10 -2 7 -21 70 -41 140 -20 70 -41 125 -46
122 -5 -4 -8 -62 -6 -138 l3 -131 -37 -3 -38 -3 0 261 0 261 41 -3 c38 -3 42
-6 55 -43z m472 11 l37 -34 0 -179 c0 -197 -8 -234 -56 -258 -33 -18 -89 -19
-122 -4 -50 23 -57 52 -57 244 0 193 7 222 58 249 48 27 98 20 140 -18z m510
-3 l-3 -38 -63 -3 -63 -3 3 -72 3 -72 53 -3 52 -3 0 -35 c0 -33 -1 -34 -39
-34 -71 0 -71 -1 -71 -115 0 -99 -1 -103 -23 -107 -47 -9 -47 -11 -47 256 0
139 3 256 7 259 3 4 49 7 100 7 l94 0 -3 -37z m190 -225 l2 -258 -35 0 -35 0
0 253 c0 140 3 257 7 261 4 4 19 6 33 4 l25 -3 3 -257z m209 250 c4 -7 10
-107 13 -223 l5 -210 55 -3 c30 -2 58 -9 62 -15 9 -14 0 -49 -16 -59 -13 -9
-148 -10 -170 -2 -14 5 -16 38 -16 265 l0 259 29 0 c17 0 33 -6 38 -12z m411
-25 c3 -31 1 -33 -37 -39 l-41 -6 -2 -217 -3 -216 -35 0 -35 0 -3 217 -2 217
-38 3 c-30 2 -38 7 -40 26 -7 50 -1 53 120 50 l113 -3 3 -32z m304 13 c8 -39
-5 -48 -68 -50 l-59 -1 -3 -71 -3 -71 32 -7 c17 -3 42 -6 55 -6 21 0 24 -5 24
-35 0 -35 -8 -41 -49 -35 -7 1 -25 -1 -38 -5 -23 -5 -24 -9 -21 -73 l3 -67 62
-3 c58 -3 63 -5 69 -28 10 -39 -9 -49 -93 -50 -125 -2 -113 -31 -113 267 l0
259 99 0 c97 0 99 -1 103 -24z m286 8 c35 -25 52 -68 52 -135 0 -43 -7 -76
-21 -106 l-21 -44 22 -82 c13 -45 25 -95 28 -110 4 -27 3 -28 -33 -25 -42 3
-41 1 -80 141 -12 45 -20 57 -35 57 -19 0 -20 -7 -20 -100 l0 -100 -35 0 -35
0 0 260 0 260 78 0 c54 0 84 -5 100 -16z m328 -9 c34 -26 60 -85 50 -111 -4
-11 -17 -14 -43 -12 -33 3 -39 7 -43 33 -4 25 -10 30 -35 30 -25 0 -31 -4 -33
-27 -5 -42 24 -92 75 -128 75 -54 106 -163 66 -230 -46 -78 -174 -66 -218 20
-22 43 -19 69 10 76 32 8 55 -1 55 -22 0 -23 29 -54 50 -54 26 0 40 21 40 64
0 37 -6 46 -64 101 -75 71 -96 107 -96 171 0 39 5 51 34 80 44 44 102 47 152
9z m682 -180 c2 -162 0 -208 -13 -241 -19 -51 -63 -77 -120 -72 -38 3 -40 4
-40 38 0 33 2 35 28 32 17 -2 36 3 48 14 18 16 19 33 19 219 0 111 3 205 7
209 4 4 21 6 38 4 l30 -3 3 -200z m205 138 c4 -38 7 -135 7 -216 0 -144 1
-148 23 -156 15 -6 27 -4 40 7 15 13 17 38 17 224 l0 209 38 -3 37 -3 3 -210
c3 -225 -2 -251 -46 -285 -31 -25 -108 -27 -140 -4 -47 33 -52 59 -52 282 0
115 3 212 7 215 3 4 18 7 33 7 26 0 27 -2 33 -67z m433 48 c28 -17 64 -73 64
-100 0 -17 -33 -30 -63 -24 -20 4 -27 11 -27 29 0 16 -8 28 -22 33 -28 11 -37
6 -48 -25 -15 -38 7 -78 72 -135 85 -74 108 -139 73 -213 -27 -57 -106 -83
-167 -55 -53 23 -91 123 -50 131 36 8 60 -4 65 -32 8 -36 42 -45 68 -19 10 10
19 26 19 34 0 29 -29 73 -71 106 -53 42 -99 114 -99 154 0 109 98 170 186 116z
m372 -15 c4 -33 -10 -46 -50 -46 l-28 0 -2 -217 -3 -218 -37 -3 -38 -3 0 220
0 221 -24 0 c-41 0 -56 11 -56 39 0 15 3 31 7 35 4 3 57 5 117 4 l111 -3 3
-29z m467 -1 c0 -29 -2 -30 -55 -35 -30 -3 -59 -8 -65 -12 -5 -3 -10 -35 -10
-69 l0 -64 53 -8 c41 -7 52 -13 54 -28 0 -10 1 -25 2 -31 1 -8 -18 -15 -49
-18 l-50 -5 -3 -102 c-3 -111 -12 -130 -57 -119 l-25 6 0 254 c0 139 3 256 7
260 4 4 50 5 103 4 l95 -3 0 -30z m230 13 c5 -25 85 -486 85 -493 0 -3 -18 -5
-40 -5 -33 0 -40 4 -44 23 -19 102 -19 102 -54 100 -19 0 -36 -4 -39 -7 -3 -3
-8 -29 -11 -57 -4 -40 -9 -52 -25 -58 -25 -10 -57 -3 -57 12 0 12 68 449 76
485 4 19 11 22 54 22 43 0 50 -3 55 -22z m330 10 c38 -17 67 -70 63 -115 -3
-36 -5 -38 -38 -38 -33 0 -36 2 -46 45 -8 33 -16 46 -31 48 -38 6 -45 -19 -48
-182 -3 -142 -2 -156 16 -175 37 -39 59 -25 69 44 5 38 7 40 40 40 33 0 35 -2
38 -39 4 -48 -13 -90 -46 -116 -31 -25 -108 -27 -140 -4 -46 32 -52 61 -52
246 0 155 2 176 20 206 30 49 97 67 155 40z m390 -23 c0 -27 -3 -30 -40 -35
l-40 -5 -3 -223 -2 -223 -38 3 -37 3 -5 220 -5 220 -32 3 c-25 2 -34 9 -39 27
-10 42 0 46 124 43 l117 -3 0 -30z m266 -4 c29 -28 39 -47 39 -70 0 -30 -1
-31 -44 -31 -41 0 -45 2 -48 26 -8 66 -68 51 -68 -17 0 -34 6 -43 63 -93 82
-73 101 -108 95 -182 -4 -49 -10 -62 -37 -86 -25 -23 -41 -28 -80 -28 -59 0
-92 23 -116 82 -16 40 -16 43 1 55 33 24 58 16 76 -27 28 -66 78 -47 78 30 0
26 -11 42 -61 88 -72 67 -99 115 -99 174 1 78 40 117 119 118 37 0 49 -5 82
-39z m-6696 -422 c4 -5 4 -21 1 -35 -6 -21 -12 -25 -39 -22 -32 3 -45 23 -33
54 6 16 62 19 71 3z m3543 -27 c3 -33 3 -33 -35 -30 -27 2 -39 8 -41 21 -5 27
18 48 47 45 21 -2 27 -9 29 -36z m3605 -1747 c113 -54 121 -222 14 -293 -38
-25 -48 -27 -151 -27 -89 0 -119 4 -149 19 -137 68 -112 279 37 317 55 14 207
5 249 -16z"/>
<path d="M4948 6759 c-27 -15 -21 -31 10 -27 15 2 27 9 27 17 0 19 -16 23 -37
10z"/>
<path d="M1135 4468 c-3 -7 -4 -269 -3 -583 3 -543 4 -570 21 -573 31 -6 77
19 95 52 15 28 17 80 20 493 3 490 -1 559 -40 600 -24 25 -85 32 -93 11z"/>
<path d="M2357 4473 c-4 -3 -7 -100 -7 -215 l0 -208 33 0 c77 1 107 64 107
225 0 124 -13 175 -48 194 -23 12 -75 15 -85 4z"/>
<path d="M2357 3813 c-4 -3 -7 -116 -7 -250 0 -269 -2 -261 63 -249 58 11 71
48 75 215 2 79 1 163 -3 187 -9 60 -47 104 -89 104 -18 0 -36 -3 -39 -7z"/>
<path d="M7680 4246 c0 -155 4 -237 11 -241 6 -4 26 -4 45 0 30 5 39 13 56 51
17 40 19 63 16 204 -3 143 -5 161 -24 187 -16 21 -31 29 -62 31 l-42 3 0 -235z"/>
<path d="M8386 3989 c-9 -54 -36 -262 -36 -276 0 -14 85 -19 93 -5 7 12 -32
295 -42 305 -6 6 -12 -3 -15 -24z"/>
<path d="M1314 2796 c-3 -7 -4 -42 -2 -77 3 -59 5 -64 27 -67 34 -5 51 22 51
78 0 33 -6 52 -18 63 -22 20 -51 22 -58 3z"/>
<path d="M3645 2791 c-12 -21 -18 -307 -6 -329 13 -24 50 -29 69 -10 15 15 17
301 2 329 -11 20 -54 26 -65 10z"/>
<path d="M5570 2730 c0 -77 1 -80 23 -80 35 0 47 19 47 75 0 54 -19 85 -53 85
-15 0 -17 -12 -17 -80z"/>
<path d="M8316 2684 c-10 -73 -7 -111 7 -117 29 -11 35 7 25 78 -12 87 -23
101 -32 39z"/>
<path d="M9731 591 c-19 -12 -6 -43 16 -39 10 2 18 12 18 22 0 22 -14 29 -34
17z"/>
<path d="M9613 540 c-13 -5 -23 -16 -23 -25 0 -13 7 -15 35 -9 21 4 35 2 35
-4 0 -6 -8 -8 -18 -5 -10 2 -29 -4 -42 -15 -17 -14 -22 -25 -17 -44 8 -32 23
-38 76 -31 l41 6 0 53 c0 43 -4 56 -22 68 -25 18 -33 19 -65 6z m47 -90 c0 -5
-9 -10 -20 -10 -11 0 -20 5 -20 10 0 6 9 10 20 10 11 0 20 -4 20 -10z"/>
<path d="M9730 475 c0 -58 2 -65 20 -65 18 0 20 7 20 65 0 58 -2 65 -20 65
-18 0 -20 -7 -20 -65z"/>
</g>
</svg>
